<svg width="16" height="16" xmlns="http://www.w3.org/2000/svg" class="bi bi-tree-fill" fill="currentColor">

 <g>
  <title>Layer 1</title>
  <path fill="#ffbc1f" id="svg_1" d="m8.416,0.223a0.5,0.5 0 0 0 -0.832,0l-3,4.5a0.5,0.5 0 0 0 0.416,0.777l0.098,0l-2.022,3.235a0.5,0.5 0 0 0 0.424,0.765l0.191,0l-1.638,3.276a0.5,0.5 0 0 0 0.447,0.724l4.5,0l0,2.5l2,0l0,-2.5l4.5,0a0.5,0.5 0 0 0 0.447,-0.724l-1.637,-3.276l0.191,0a0.5,0.5 0 0 0 0.424,-0.765l-2.023,-3.235l0.098,0a0.5,0.5 0 0 0 0.416,-0.777l-3,-4.5z"/>
 </g>
</svg>